<svg xmlns="http://www.w3.org/2000/svg" width="35.121" height="27.598" viewBox="0 0 35.121 27.598">
  <g id="speech-bubbles-comment-option" transform="translate(0 -54.805)">
    <g id="Group_173" data-name="Group 173" transform="translate(0 54.804)">
      <path id="Path_47" data-name="Path 47" d="M20.726,73.53a12.445,12.445,0,0,0,5.027-3.655,7.807,7.807,0,0,0,0-10.073,12.447,12.447,0,0,0-5.027-3.655A17.653,17.653,0,0,0,13.8,54.8a17.658,17.658,0,0,0-6.928,1.342A12.447,12.447,0,0,0,1.842,59.8,7.915,7.915,0,0,0,0,64.839a7.7,7.7,0,0,0,1.392,4.391A11.452,11.452,0,0,0,5.214,72.7q-.2.471-.4.863a4.968,4.968,0,0,1-.49.754q-.284.363-.441.568t-.51.578q-.353.372-.451.49c0-.013-.026.016-.078.088s-.082.1-.088.1-.033.026-.078.1l-.069.108-.049.1a.42.42,0,0,0-.039.118.767.767,0,0,0-.01.127.394.394,0,0,0,.02.127.649.649,0,0,0,.225.412.612.612,0,0,0,.4.156h.059A16.433,16.433,0,0,0,4.9,77.067a16.481,16.481,0,0,0,5.448-2.509,19.682,19.682,0,0,0,3.449.314A17.636,17.636,0,0,0,20.726,73.53Z" transform="translate(0 -54.804)" fill="red"/>
      <path id="Path_48" data-name="Path 48" d="M197.523,169.974a7.649,7.649,0,0,0-.079-8.908,11.617,11.617,0,0,0-4-3.488,10.086,10.086,0,0,1-.863,7.957,13.118,13.118,0,0,1-3.763,4.155,17.354,17.354,0,0,1-5.174,2.528,20.706,20.706,0,0,1-6.056.882q-.588,0-1.724-.078a16.469,16.469,0,0,0,9.25,2.587,19.691,19.691,0,0,0,3.449-.314,15.652,15.652,0,0,0,7.134,2.822.591.591,0,0,0,.431-.137.724.724,0,0,0,.255-.431c-.006-.078,0-.122.02-.128s.016-.049-.01-.127l-.039-.118-.049-.1a.938.938,0,0,0-.069-.108.842.842,0,0,0-.078-.1c-.019-.019-.048-.052-.088-.1s-.065-.075-.078-.088q-.1-.118-.451-.49t-.509-.578q-.157-.206-.441-.569a4.954,4.954,0,0,1-.49-.754q-.206-.392-.4-.862A11.5,11.5,0,0,0,197.523,169.974Z" transform="translate(-163.794 -150.522)" fill="red"/>
    </g>
  </g>
</svg>
