<svg xmlns="http://www.w3.org/2000/svg" width="180.549" height="181.127" viewBox="0 0 180.549 181.127">
  <g id="like" transform="translate(0 -1.637)">
    <g id="Group_177" data-name="Group 177" transform="translate(0 9.136)">
      <path id="Path_61" data-name="Path 61" d="M252.227,101.394a23.706,23.706,0,0,0,5.949-16.115A21.048,21.048,0,0,0,237.416,64.51H207.459a27.238,27.238,0,0,1,.864-2.6,18.1,18.1,0,0,1,1.189-2.38q.755-1.3,1.08-1.947,1.946-3.675,2.976-6.055a44.192,44.192,0,0,0,2.053-6.49,33.715,33.715,0,0,0,1.027-8.22c0-1.73-.021-3.137-.055-4.218a46.51,46.51,0,0,0-.539-4.868,27.31,27.31,0,0,0-1.3-5.406,25.2,25.2,0,0,0-2.6-4.867,15.164,15.164,0,0,0-4.328-4.381,23.7,23.7,0,0,0-6.49-2.811,32.3,32.3,0,0,0-8.926-1.136,6.654,6.654,0,0,0-4.867,2.055,18.778,18.778,0,0,0-3.678,5.406,32.185,32.185,0,0,0-2.11,5.625q-.595,2.379-1.35,6.6-.977,4.545-1.462,6.543a34.593,34.593,0,0,1-1.893,5.245A16.573,16.573,0,0,1,173.7,45.8,159.908,159.908,0,0,0,162.78,58.778q-5.3,6.921-10.924,13.086t-8.22,6.382a7.093,7.093,0,0,0-4.65,2.218,6.526,6.526,0,0,0-1.947,4.7V154.5a6.474,6.474,0,0,0,2.055,4.812,7.153,7.153,0,0,0,4.867,2.11q3.785.109,17.089,4.76,8.327,2.808,13.031,4.27t13.139,3.137a80.363,80.363,0,0,0,15.573,1.677h13.952q14.388-.216,21.307-8.436,6.271-7.464,5.3-19.577a21.039,21.039,0,0,0,5.84-10.166,22.245,22.245,0,0,0,0-12.651,22.445,22.445,0,0,0,4.649-14.817A25.775,25.775,0,0,0,252.227,101.394Z" transform="translate(-85.126 -9.136)" fill="#fff" stroke="red" stroke-width="15"/>
      <path id="Path_62" data-name="Path 62" d="M38.071,191.864H6.923a6.652,6.652,0,0,0-4.868,2.055A6.651,6.651,0,0,0,0,198.786v69.222a6.657,6.657,0,0,0,2.055,4.867,6.663,6.663,0,0,0,4.868,2.054H38.071a7.015,7.015,0,0,0,6.921-6.92V198.786a7.019,7.019,0,0,0-6.921-6.922ZM25.633,259.083a6.74,6.74,0,0,1-4.867,2A6.921,6.921,0,0,1,15.845,249.3a6.852,6.852,0,0,1,9.788,0,6.853,6.853,0,0,1,0,9.788Z" transform="translate(0 -122.643)" fill="red"/>
    </g>
  </g>
</svg>
