<svg xmlns="http://www.w3.org/2000/svg" width="158" height="34" viewBox="0 0 158 34">
  <g id="ps-buttom" transform="translate(-1070 -42)">
    <g id="Group_219" data-name="Group 219" transform="translate(9.001)">
      <rect id="Rectangle_115" data-name="Rectangle 115" width="113" height="34" transform="translate(1106 42)" fill="#0700b5"/>
      <rect id="Rectangle_116" data-name="Rectangle 116" width="43" height="34" transform="translate(1061 42)" fill="#0700b5"/>
      <text id="PS-WEB" transform="translate(1126 64)" fill="#fff" font-size="15" font-family="Helvetica-Bold, Helvetica" font-weight="700"><tspan x="0" y="0">PS-WEB</tspan></text>
      <g id="id-card" transform="translate(1068.262 41.192)">
        <path id="Path_34" data-name="Path 34" d="M27.4,8H2.072A2.074,2.074,0,0,0,0,10.072V27.544a2.074,2.074,0,0,0,2.072,2.072H27.4a2.074,2.074,0,0,0,2.072-2.072V10.072A2.074,2.074,0,0,0,27.4,8Zm1.089,19.544A1.09,1.09,0,0,1,27.4,28.634H2.072A1.09,1.09,0,0,1,.983,27.544V10.072A1.09,1.09,0,0,1,2.072,8.983H27.4a1.09,1.09,0,0,1,1.089,1.089Z" fill="#fff"/>
        <path id="Path_35" data-name="Path 35" d="M13.665,25.937l-1.787-.913v-.19a3.549,3.549,0,0,0,1.676-2.144,1.462,1.462,0,0,0,.78-1.3V20.9a1.465,1.465,0,0,0-.565-1.154c-.307-1.857-1.6-2.8-3.856-2.8q-.16,0-.312.012A2.486,2.486,0,0,1,8.016,16.6a2.014,2.014,0,0,1-.45-.39.589.589,0,0,0-1.049.429c.021.184.052.4.1.632.095.479.095.479-.038.765-.05.109-.112.241-.185.419a5.486,5.486,0,0,0-.344,1.3A1.466,1.466,0,0,0,5.491,20.9v.491a1.462,1.462,0,0,0,.78,1.3,3.546,3.546,0,0,0,1.676,2.144v.185L6.1,25.932A2.1,2.1,0,0,0,5,27.778v.651c0,.394,0,1.318,4.913,1.318s4.913-.923,4.913-1.318v-.612A2.092,2.092,0,0,0,13.665,25.937Zm.178,2.381a10.7,10.7,0,0,1-3.93.446,10.7,10.7,0,0,1-3.93-.446v-.54a1.111,1.111,0,0,1,.566-.974l1.895-.934a.873.873,0,0,0,.486-.78V24.2l-.3-.128A2.6,2.6,0,0,1,7.152,22.2l-.07-.262-.258-.081a.5.5,0,0,1-.349-.466V20.9a.491.491,0,0,1,.266-.43l.23-.123L7,20.09A4.613,4.613,0,0,1,7.3,18.828c.065-.16.121-.279.166-.377a1.451,1.451,0,0,0,.185-.921,3.506,3.506,0,0,0,2.025.413c.076-.006.154-.009.234-.009,1.839,0,2.737.666,2.913,2.161l.03.256.228.121a.493.493,0,0,1,.267.432v.491a.5.5,0,0,1-.35.465l-.258.081-.07.262a2.6,2.6,0,0,1-1.481,1.874l-.3.128v.89a.865.865,0,0,0,.474.774l1.855.948a1.113,1.113,0,0,1,.619,1Z" transform="translate(-2.544 -4.06)" fill="#fff"/>
        <path id="Path_36" data-name="Path 36" d="M29.491,21.983H34.4a.491.491,0,1,0,0-.983H29.491a.491.491,0,0,0,0,.983Z" transform="translate(-14.753 -6.613)" fill="#fff"/>
        <path id="Path_37" data-name="Path 37" d="M43.491,21.983h.491a.491.491,0,0,0,0-.983h-.491a.491.491,0,0,0,0,.983Z" transform="translate(-21.875 -6.613)" fill="#fff"/>
        <path id="Path_38" data-name="Path 38" d="M29.983,38h-.491a.491.491,0,0,0,0,.983h.491a.491.491,0,1,0,0-.983Z" transform="translate(-14.753 -15.262)" fill="#fff"/>
        <path id="Path_39" data-name="Path 39" d="M35.474,38h-.983a.491.491,0,1,0,0,.983h.983a.491.491,0,1,0,0-.983Z" transform="translate(-17.297 -15.262)" fill="#fff"/>
        <path id="Path_40" data-name="Path 40" d="M40.983,38h-.491a.491.491,0,1,0,0,.983h.491a.491.491,0,0,0,0-.983Z" transform="translate(-20.349 -15.262)" fill="#fff"/>
        <path id="Path_41" data-name="Path 41" d="M46.474,38h-.983a.491.491,0,1,0,0,.983h.983a.491.491,0,1,0,0-.983Z" transform="translate(-22.893 -15.262)" fill="#fff"/>
        <path id="Path_42" data-name="Path 42" d="M51.142,38.149a.491.491,0,1,0,.7,0A.513.513,0,0,0,51.142,38.149Z" transform="translate(-25.945 -15.268)" fill="#fff"/>
        <path id="Path_43" data-name="Path 43" d="M40.3,27H29.491a.491.491,0,0,0,0,.983H40.3a.491.491,0,0,0,0-.983Z" transform="translate(-14.753 -9.666)" fill="#fff"/>
        <path id="Path_44" data-name="Path 44" d="M40.3,33H29.491a.491.491,0,0,0,0,.983H40.3a.491.491,0,0,0,0-.983Z" transform="translate(-14.753 -12.718)" fill="#fff"/>
      </g>
    </g>
  </g>
</svg>
