<?xml version="1.0" encoding="UTF-8" standalone="no"?>
<svg width="20px" height="20px" viewBox="0 0 20 20" version="1.1" xmlns="http://www.w3.org/2000/svg" xmlns:xlink="http://www.w3.org/1999/xlink">
    <!-- Generator: Sketch 48.2 (47327) - http://www.bohemiancoding.com/sketch -->
    <title>Page 1</title>
    <desc>Created with Sketch.</desc>
    <defs>
        <polygon id="path-1" points="0.0004 -0.0002 19.4677968 -0.0002 19.4677968 19.3198 0.0004 19.3198"></polygon>
    </defs>
    <g id="Home" stroke="none" stroke-width="1" fill="none" fill-rule="evenodd">
        <g id="Page-1">
            <mask id="mask-2" fill="white">
                <use xlink:href="#path-1"></use>
            </mask>
            <g id="Clip-2"></g>
            <path d="M13.2944,7.9707 C13.2944,5.0297 10.9114,2.6477 7.9724,2.6477 C5.0294,2.6477 2.6424,5.0297 2.6424,7.9707 C2.6424,10.9127 5.0294,13.3007 7.9724,13.3007 C10.9114,13.3007 13.2944,10.9127 13.2944,7.9707 M16.9124,19.2217 L12.3384,14.6497 C11.0864,15.4697 9.5874,15.9497 7.9724,15.9497 C3.5634,15.9497 0.0004,12.3777 0.0004,7.9707 C0.0004,3.5717 3.5634,-0.0003 7.9724,-0.0003 C12.3704,-0.0003 15.9424,3.5717 15.9424,7.9707 C15.9424,9.5097 15.5094,10.9427 14.7594,12.1567 L19.3654,16.7617 C19.6084,16.9987 19.4034,17.5917 18.9144,18.0787 L18.2304,18.7647 C17.7404,19.2537 17.1484,19.4577 16.9124,19.2217" id="Fill-1" fill="#7F7F7F" mask="url(#mask-2)"></path>
        </g>
    </g>
</svg>