<svg xmlns="http://www.w3.org/2000/svg" width="107.012" height="107.016" viewBox="0 0 107.012 107.016">
  <g id="registrer" transform="translate(0 -0.001)">
    <path id="Path_591" data-name="Path 591" d="M27.965,75.746,12,84.455a14.347,14.347,0,0,0-2.562,1.823,53.474,53.474,0,0,0,68.706.178,14.165,14.165,0,0,0-2.815-1.886l-17.1-8.547a6.52,6.52,0,0,1-3.6-5.831V63.484a25.82,25.82,0,0,0,1.617-2.08,39.338,39.338,0,0,0,5.314-10.71,5.37,5.37,0,0,0,3.808-5.108v-7.16a5.345,5.345,0,0,0-1.789-3.968V24.108S65.705,8,43.892,8,24.205,24.108,24.205,24.108v10.35a5.338,5.338,0,0,0-1.789,3.968v7.16a5.368,5.368,0,0,0,2.476,4.5,35.531,35.531,0,0,0,6.473,13.393v6.542A6.526,6.526,0,0,1,27.965,75.746Z" transform="translate(9.618 8.154)" fill="#e7eced"/>
    <g id="Group_447" data-name="Group 447" transform="translate(0 0)">
      <path id="Path_592" data-name="Path 592" d="M54.423.008A53.474,53.474,0,0,0,19.077,94.416a14.218,14.218,0,0,1,2.538-1.805L37.581,83.9a6.522,6.522,0,0,0,3.4-5.724V71.636a35.5,35.5,0,0,1-6.473-13.393,5.37,5.37,0,0,1-2.475-4.5v-7.16a5.345,5.345,0,0,1,1.789-3.968V32.26S31.693,16.153,53.506,16.153,73.193,32.26,73.193,32.26V42.61a5.338,5.338,0,0,1,1.789,3.968v7.16a5.37,5.37,0,0,1-3.808,5.108,39.338,39.338,0,0,1-5.314,10.71,25.818,25.818,0,0,1-1.617,2.08v6.708a6.517,6.517,0,0,0,3.6,5.831l17.1,8.547A14.236,14.236,0,0,1,87.749,94.6,53.5,53.5,0,0,0,54.423.008Z" transform="translate(0 0)" fill="#556080"/>
    </g>
  </g>
</svg>
